<?xml version="1.0" encoding="UTF-8"?>
<!DOCTYPE svg PUBLIC "-//W3C//DTD SVG 1.1//EN" "http://www.w3.org/Graphics/SVG/1.1/DTD/svg11.dtd">
<svg xmlns="http://www.w3.org/2000/svg" version="1.1" width="1024px" height="1024px" style="shape-rendering:geometricPrecision; text-rendering:geometricPrecision; image-rendering:optimizeQuality; fill-rule:evenodd; clip-rule:evenodd" xmlns:xlink="http://www.w3.org/1999/xlink">
<g><path style="opacity:1" fill="#062a40" d="M 359.5,86.5 C 411.651,83.8187 450.818,104.819 477,149.5C 486.76,168.444 494.76,188.111 501,208.5C 507.191,231.741 514.191,254.741 522,277.5C 532.758,307.92 550.258,333.753 574.5,355C 591.874,367.37 607.708,381.537 622,397.5C 674.81,470.44 725.143,545.107 773,621.5C 809.979,683.795 845.646,746.795 880,810.5C 881.653,822.051 876.82,828.885 865.5,831C 873.956,840.079 880.789,850.246 886,861.5C 887.393,877.119 880.227,885.953 864.5,888C 843.981,889.79 824.148,886.956 805,879.5C 800.441,881.849 795.607,883.349 790.5,884C 772.817,886.385 755.817,884.052 739.5,877C 731.847,873.508 724.513,869.508 717.5,865C 701.39,849.568 687.557,832.402 676,813.5C 670.5,807.333 665,801.167 659.5,795C 646.596,791.923 634.429,787.09 623,780.5C 619.855,781.411 616.688,782.245 613.5,783C 610.272,802.294 601.438,818.461 587,831.5C 584.276,837.005 581.943,842.672 580,848.5C 577.416,860.758 574.583,872.925 571.5,885C 584.54,889.927 597.874,893.927 611.5,897C 622.202,902.73 627.202,911.73 626.5,924C 625.873,933.159 625.373,942.326 625,951.5C 619,943.5 613,935.5 607,927.5C 605.581,928.46 604.081,929.293 602.5,930C 583.771,930.319 565.771,926.819 548.5,919.5C 544.506,920.665 540.506,921.832 536.5,923C 526.346,929.077 515.68,934.077 504.5,938C 501.532,938.694 498.532,939.194 495.5,939.5C 493.074,939.596 490.907,938.93 489,937.5C 487.521,941.417 486.354,945.417 485.5,949.5C 469.556,950.721 462.722,943.388 465,927.5C 455.333,928.833 445.667,928.833 436,927.5C 435.86,929.256 436.36,930.922 437.5,932.5C 431.193,933.664 424.859,933.831 418.5,933C 411.86,929.644 408.86,924.144 409.5,916.5C 395.85,918.942 382.183,921.275 368.5,923.5C 363.885,922.339 359.218,921.839 354.5,922C 351.333,927.167 348.167,932.333 345,937.5C 341.327,932.334 337.494,927.334 333.5,922.5C 328.843,927.325 324.343,932.325 320,937.5C 319.333,926.5 319.333,915.5 320,904.5C 322.059,892.108 329.226,884.608 341.5,882C 362.262,881.082 382.928,879.082 403.5,876C 414.906,874.916 423.406,869.416 429,859.5C 434.333,845.5 439.667,831.5 445,817.5C 445.667,816.167 446.333,816.167 447,817.5C 449.595,814.083 451.095,810.249 451.5,806C 447.233,792.299 440.733,779.799 432,768.5C 396.531,736.698 362.698,703.198 330.5,668C 313.333,656.167 298.833,641.667 287,624.5C 268.955,597.744 254.622,569.077 244,538.5C 230.595,490.456 236.595,445.123 262,402.5C 274.504,363.318 289.171,324.984 306,287.5C 310.322,275.872 313.822,264.039 316.5,252C 316.963,241.84 313.63,233.173 306.5,226C 304.801,225.042 302.967,224.542 301,224.5C 296.985,225.06 293.152,226.227 289.5,228C 280.897,233.135 271.897,237.468 262.5,241C 260.208,242.29 258.208,243.957 256.5,246C 253.597,246.133 250.597,246.466 247.5,247C 243.667,245.833 241.167,243.333 240,239.5C 237.404,226.89 239.738,215.223 247,204.5C 251.864,198.124 257.197,192.124 263,186.5C 266.846,178.985 271.846,172.318 278,166.5C 279.825,148.01 286.159,131.344 297,116.5C 305.056,108.446 314.222,101.946 324.5,97C 335.95,92.3461 347.616,88.8461 359.5,86.5 Z M 266.5,215.5 C 270.35,209.138 275.184,203.471 281,198.5C 284.959,189.902 290.792,182.902 298.5,177.5C 298.944,161.719 303.11,147.052 311,133.5C 317.742,125.033 326.242,118.866 336.5,115C 378.771,100.193 415.271,109.026 446,141.5C 457.178,156.045 465.845,172.045 472,189.5C 480.006,211.853 487.006,234.519 493,257.5C 503.238,297.495 522.405,332.328 550.5,362C 504.015,382.122 477.182,417.288 470,467.5C 469.134,481.537 469.468,495.537 471,509.5C 482.361,560.309 503.695,606.309 535,647.5C 559.255,674.1 586.755,696.6 617.5,715C 646.504,732.837 675.837,750.171 705.5,767C 747.048,788.516 789.715,807.516 833.5,824C 832.549,824.718 832.383,825.551 833,826.5C 844.086,838.248 854.419,850.582 864,863.5C 864.749,864.635 864.583,865.635 863.5,866.5C 845.38,868.902 828.047,866.235 811.5,858.5C 803.806,850.474 796.139,842.474 788.5,834.5C 788.167,835 787.833,835.5 787.5,836C 789.213,844.78 790.547,853.613 791.5,862.5C 775.928,865.18 760.928,863.346 746.5,857C 742.167,854.667 737.833,852.333 733.5,850C 726.781,844.403 720.614,838.236 715,831.5C 706.333,819.5 697.667,807.5 689,795.5C 683.199,788.698 677.032,782.198 670.5,776C 652.899,772.444 637.065,765.278 623,754.5C 620.178,756.653 617.344,758.819 614.5,761C 607.617,762.451 600.784,763.951 594,765.5C 593.488,786.759 585.488,804.426 570,818.5C 566.135,825.565 562.802,832.898 560,840.5C 557.79,841.749 555.624,841.582 553.5,840C 560.791,819.861 559.958,800.028 551,780.5C 546.667,771.833 542.333,763.167 538,754.5C 531.901,753.82 525.734,753.653 519.5,754C 509.508,751.666 499.508,749.666 489.5,748C 494.873,757.893 498.04,768.393 499,779.5C 496.64,786.539 492.64,792.539 487,797.5C 482.148,806.521 477.982,815.855 474.5,825.5C 470.905,825.024 467.572,823.858 464.5,822C 469.72,814.619 471.887,806.452 471,797.5C 463.034,773.076 449.2,752.576 429.5,736C 399.5,710 371.5,682 345.5,652C 332.838,644.677 322.005,635.177 313,623.5C 293.47,597.453 277.804,569.12 266,538.5C 255.712,505.349 256.046,472.349 267,439.5C 270.492,431.847 274.492,424.513 279,417.5C 286.534,396.564 293.867,375.564 301,354.5C 312.312,328.897 322.646,302.897 332,276.5C 334.353,268.065 336.186,259.565 337.5,251C 338.13,233.546 331.797,219.213 318.5,208C 310.941,204.089 302.941,202.755 294.5,204C 284.757,206.966 275.424,210.8 266.5,215.5 Z M 367.5,135.5 C 381.793,134.703 388.626,141.369 388,155.5C 383.146,167.568 374.646,171.068 362.5,166C 353.871,159.125 352.371,150.958 358,141.5C 360.843,138.837 364.009,136.837 367.5,135.5 Z M 566.5,379.5 C 568.541,379.854 570.374,379.854 572,379.5C 587.612,392.446 601.946,406.779 615,422.5C 663.489,492.135 710.489,562.802 756,634.5C 789.592,691.344 822.425,748.678 854.5,806.5C 854.167,806.833 853.833,807.167 853.5,807.5C 791.455,786.809 732.455,759.642 676.5,726C 658.834,714.498 640.834,703.498 622.5,693C 599.317,678.83 578.15,661.996 559,642.5C 539.346,620.142 523.68,595.142 512,567.5C 502.185,546.054 495.185,523.721 491,500.5C 485.988,461.195 497.822,428.028 526.5,401C 538.059,390.389 551.392,383.223 566.5,379.5 Z M 520.5,775.5 C 522.288,775.215 523.955,775.548 525.5,776.5C 532.109,787.661 536.109,799.661 537.5,812.5C 537.378,816.878 536.878,821.211 536,825.5C 531.059,839.596 526.892,853.929 523.5,868.5C 522,871.833 520.5,875.167 519,878.5C 514.536,876.435 509.869,875.101 505,874.5C 498.582,875.643 492.082,875.81 485.5,875C 482.399,874.058 480.066,872.224 478.5,869.5C 482.106,858.515 485.606,847.515 489,836.5C 492.412,829.342 496.078,822.342 500,815.5C 505.377,809.792 510.377,803.792 515,797.5C 518.403,790.556 520.236,783.223 520.5,775.5 Z M 468.5,844.5 C 468.167,843.167 467.833,843.167 467.5,844.5C 464.299,841.082 460.466,839.748 456,840.5C 454.992,838.741 453.492,837.574 451.5,837C 452.337,835.989 452.67,834.822 452.5,833.5C 460.422,835.145 467.755,837.478 474.5,840.5C 473.754,841.736 473.421,843.07 473.5,844.5C 471.833,844.5 470.167,844.5 468.5,844.5 Z M 453.5,842.5 C 454.773,843.077 454.773,843.743 453.5,844.5C 452.537,844.03 452.537,843.363 453.5,842.5 Z M 457.5,842.5 C 458.713,843.497 458.546,844.497 457,845.5C 456.53,844.423 456.697,843.423 457.5,842.5 Z M 465.5,848.5 C 468.408,849.159 468.742,849.993 466.5,851C 467.527,851.513 468.527,852.013 469.5,852.5C 469.5,853.5 469.5,854.5 469.5,855.5C 462.167,853.833 454.833,852.167 447.5,850.5C 447.372,848.345 447.872,846.345 449,844.5C 454.253,846.786 459.253,848.786 464,850.5C 465.03,850.164 465.53,849.497 465.5,848.5 Z M 460.5,844.5 C 465.539,844.451 465.705,845.118 461,846.5C 460.536,845.906 460.369,845.239 460.5,844.5 Z M 542.5,851.5 C 549.529,853.007 556.529,854.674 563.5,856.5C 563.833,857.167 564.167,857.833 564.5,858.5C 563.509,862.131 562.676,865.798 562,869.5C 553.795,869.533 545.628,868.366 537.5,866C 537.996,864.004 538.996,862.337 540.5,861C 539.766,857.662 540.432,854.495 542.5,851.5 Z M 449.5,864.5 C 451.827,864.665 453.993,865.331 456,866.5C 455.94,871.673 457.107,876.506 459.5,881C 452.229,885.469 444.562,889.135 436.5,892C 430.948,893.846 425.281,894.512 419.5,894C 434.645,889.285 444.645,879.452 449.5,864.5 Z M 513.5,910.5 C 514.361,908.614 515.361,906.78 516.5,905C 523.157,902.675 529.157,899.342 534.5,895C 534.167,894.667 533.833,894.333 533.5,894C 536.213,890.076 538.547,885.909 540.5,881.5C 543.451,880.776 546.451,880.943 549.5,882C 549.043,882.414 548.709,882.914 548.5,883.5C 549.94,888.685 551.607,893.852 553.5,899C 546.412,898.679 539.412,899.679 532.5,902C 525.899,904.362 519.566,907.195 513.5,910.5 Z"/></g>
<g><path style="opacity:1" fill="#062a40" d="M 366.5,129.5 C 385.834,128.335 395,137.335 394,156.5C 388.834,171.836 378.334,177.336 362.5,173C 348.731,165.097 345.231,153.93 352,139.5C 355.64,134.348 360.474,131.014 366.5,129.5 Z M 367.5,135.5 C 364.009,136.837 360.843,138.837 358,141.5C 352.371,150.958 353.871,159.125 362.5,166C 374.646,171.068 383.146,167.568 388,155.5C 388.626,141.369 381.793,134.703 367.5,135.5 Z"/></g>
<g><path style="opacity:1" fill="#173145" d="M 377.5,142.5 C 378.833,144.5 380.5,146.167 382.5,147.5C 383.833,150.5 383.833,153.5 382.5,156.5C 380.5,157.833 378.833,159.5 377.5,161.5C 374.167,162.833 370.833,162.833 367.5,161.5C 366.167,159.5 364.5,157.833 362.5,156.5C 361.167,153.5 361.167,150.5 362.5,147.5C 364.5,146.167 366.167,144.5 367.5,142.5C 370.833,141.167 374.167,141.167 377.5,142.5 Z"/></g>
<g><path style="opacity:0.243" fill="#949494" d="M 377.5,142.5 C 380.167,143.167 381.833,144.833 382.5,147.5C 380.5,146.167 378.833,144.5 377.5,142.5 Z"/></g>
<g><path style="opacity:0.961" fill="#8a8a8a" d="M 367.5,142.5 C 366.167,144.5 364.5,146.167 362.5,147.5C 363.167,144.833 364.833,143.167 367.5,142.5 Z"/></g>
<g><path style="opacity:0.329" fill="#939393" d="M 362.5,156.5 C 364.5,157.833 366.167,159.5 367.5,161.5C 364.833,160.833 363.167,159.167 362.5,156.5 Z"/></g>
<g><path style="opacity:0.557" fill="#989898" d="M 382.5,156.5 C 381.833,159.167 380.167,160.833 377.5,161.5C 378.833,159.5 380.5,157.833 382.5,156.5 Z"/></g>
</svg>
